<mxfile host="Electron" agent="Mozilla/5.0 (Macintosh; Intel Mac OS X 10_15_7) AppleWebKit/537.36 (KHTML, like Gecko) draw.io/26.0.16 Chrome/132.0.6834.196 Electron/34.2.0 Safari/537.36" version="26.0.16">
  <diagram name="ページ1" id="hKXQRzZGeD4a8s7fAWbX">
    <mxGraphModel dx="500" dy="366" grid="1" gridSize="10" guides="1" tooltips="1" connect="1" arrows="1" fold="1" page="1" pageScale="1" pageWidth="2336" pageHeight="1654" math="0" shadow="0">
      <root>
        <mxCell id="0" />
        <mxCell id="1" parent="0" />
        <mxCell id="-Pul16ckeKqLMgaGqeRH-3" value="" style="rounded=1;whiteSpace=wrap;html=1;arcSize=6;fillColor=none;fontColor=#333333;strokeColor=#000000;dashed=1;strokeWidth=2;fontFamily=Zen Kaku Gothic New;fontSource=https%3A%2F%2Ffonts.googleapis.com%2Fcss%3Ffamily%3DZen%2BKaku%2BGothic%2BNew;" parent="1" vertex="1">
          <mxGeometry x="880" y="80" width="480" height="280" as="geometry" />
        </mxCell>
        <mxCell id="-Pul16ckeKqLMgaGqeRH-6" value="" style="edgeStyle=orthogonalEdgeStyle;rounded=0;orthogonalLoop=1;jettySize=auto;html=1;startArrow=classic;startFill=1;fontFamily=Zen Kaku Gothic New;fontSource=https%3A%2F%2Ffonts.googleapis.com%2Fcss%3Ffamily%3DZen%2BKaku%2BGothic%2BNew;" parent="1" source="-Pul16ckeKqLMgaGqeRH-1" target="-Pul16ckeKqLMgaGqeRH-2" edge="1">
          <mxGeometry relative="1" as="geometry" />
        </mxCell>
        <mxCell id="-Pul16ckeKqLMgaGqeRH-1" value="Service A" style="rounded=1;whiteSpace=wrap;html=1;fontFamily=Zen Kaku Gothic New;fontSource=https%3A%2F%2Ffonts.googleapis.com%2Fcss%3Ffamily%3DZen%2BKaku%2BGothic%2BNew;fontSize=20;" parent="1" vertex="1">
          <mxGeometry x="930" y="130" width="180" height="60" as="geometry" />
        </mxCell>
        <mxCell id="-Pul16ckeKqLMgaGqeRH-2" value="Service B" style="rounded=1;whiteSpace=wrap;html=1;fontFamily=Zen Kaku Gothic New;fontSource=https%3A%2F%2Ffonts.googleapis.com%2Fcss%3Ffamily%3DZen%2BKaku%2BGothic%2BNew;fontSize=20;" parent="1" vertex="1">
          <mxGeometry x="930" y="250" width="180" height="60" as="geometry" />
        </mxCell>
        <mxCell id="-Pul16ckeKqLMgaGqeRH-7" style="edgeStyle=orthogonalEdgeStyle;rounded=0;orthogonalLoop=1;jettySize=auto;html=1;entryX=1;entryY=0.5;entryDx=0;entryDy=0;startArrow=classic;startFill=1;jumpStyle=none;curved=1;fontFamily=Zen Kaku Gothic New;fontSource=https%3A%2F%2Ffonts.googleapis.com%2Fcss%3Ffamily%3DZen%2BKaku%2BGothic%2BNew;" parent="1" source="-Pul16ckeKqLMgaGqeRH-5" target="-Pul16ckeKqLMgaGqeRH-1" edge="1">
          <mxGeometry relative="1" as="geometry">
            <Array as="points">
              <mxPoint x="1220" y="160" />
            </Array>
          </mxGeometry>
        </mxCell>
        <mxCell id="-Pul16ckeKqLMgaGqeRH-5" value="Service C" style="rounded=1;whiteSpace=wrap;html=1;fontFamily=Zen Kaku Gothic New;fontSource=https%3A%2F%2Ffonts.googleapis.com%2Fcss%3Ffamily%3DZen%2BKaku%2BGothic%2BNew;fontSize=20;" parent="1" vertex="1">
          <mxGeometry x="1130" y="250" width="180" height="60" as="geometry" />
        </mxCell>
        <mxCell id="-Pul16ckeKqLMgaGqeRH-10" value="&lt;font style=&quot;font-size: 18px;&quot;&gt;API&lt;/font&gt;" style="text;html=1;align=center;verticalAlign=middle;resizable=0;points=[];autosize=1;strokeColor=none;fillColor=none;fontFamily=Zen Kaku Gothic New;fontSource=https%3A%2F%2Ffonts.googleapis.com%2Fcss%3Ffamily%3DZen%2BKaku%2BGothic%2BNew;fontStyle=1" parent="1" vertex="1">
          <mxGeometry x="1200" y="160" width="50" height="40" as="geometry" />
        </mxCell>
        <mxCell id="-Pul16ckeKqLMgaGqeRH-11" value="&lt;font style=&quot;font-size: 18px;&quot;&gt;API&lt;/font&gt;" style="text;html=1;align=center;verticalAlign=middle;resizable=0;points=[];autosize=1;strokeColor=none;fillColor=none;fontFamily=Zen Kaku Gothic New;fontSource=https%3A%2F%2Ffonts.googleapis.com%2Fcss%3Ffamily%3DZen%2BKaku%2BGothic%2BNew;fontStyle=1" parent="1" vertex="1">
          <mxGeometry x="1020" y="200" width="50" height="40" as="geometry" />
        </mxCell>
        <mxCell id="-Pul16ckeKqLMgaGqeRH-12" value="" style="rounded=1;whiteSpace=wrap;html=1;arcSize=6;strokeWidth=2;fontFamily=Zen Kaku Gothic New;fontSource=https%3A%2F%2Ffonts.googleapis.com%2Fcss%3Ffamily%3DZen%2BKaku%2BGothic%2BNew;" parent="1" vertex="1">
          <mxGeometry x="240" y="80" width="480" height="280" as="geometry" />
        </mxCell>
        <mxCell id="-Pul16ckeKqLMgaGqeRH-13" value="&lt;span style=&quot;color: rgb(63, 63, 63);&quot;&gt;Application ≒ Services&lt;/span&gt;" style="text;html=1;align=center;verticalAlign=middle;resizable=0;points=[];autosize=1;strokeColor=none;fillColor=none;fontSize=24;fontFamily=Zen Kaku Gothic New;fontSource=https%3A%2F%2Ffonts.googleapis.com%2Fcss%3Ffamily%3DZen%2BKaku%2BGothic%2BNew;" parent="1" vertex="1">
          <mxGeometry x="990" y="360" width="260" height="40" as="geometry" />
        </mxCell>
        <mxCell id="-Pul16ckeKqLMgaGqeRH-14" value="&lt;span style=&quot;color: rgb(63, 63, 63);&quot;&gt;Application = Service&lt;/span&gt;" style="text;html=1;align=center;verticalAlign=middle;resizable=0;points=[];autosize=1;strokeColor=none;fillColor=none;fontSize=24;fontFamily=Zen Kaku Gothic New;fontSource=https%3A%2F%2Ffonts.googleapis.com%2Fcss%3Ffamily%3DZen%2BKaku%2BGothic%2BNew;" parent="1" vertex="1">
          <mxGeometry x="355" y="360" width="250" height="40" as="geometry" />
        </mxCell>
        <mxCell id="-Pul16ckeKqLMgaGqeRH-15" value="Front end" style="rounded=1;whiteSpace=wrap;html=1;fontFamily=Zen Kaku Gothic New;fontSource=https%3A%2F%2Ffonts.googleapis.com%2Fcss%3Ffamily%3DZen%2BKaku%2BGothic%2BNew;fontSize=20;dashed=1;" parent="1" vertex="1">
          <mxGeometry x="400" y="120" width="180" height="60" as="geometry" />
        </mxCell>
        <mxCell id="-Pul16ckeKqLMgaGqeRH-16" value="Back end" style="rounded=1;whiteSpace=wrap;html=1;fontFamily=Zen Kaku Gothic New;fontSource=https%3A%2F%2Ffonts.googleapis.com%2Fcss%3Ffamily%3DZen%2BKaku%2BGothic%2BNew;fontSize=20;dashed=1;" parent="1" vertex="1">
          <mxGeometry x="290" y="230" width="180" height="60" as="geometry" />
        </mxCell>
        <mxCell id="-Pul16ckeKqLMgaGqeRH-18" value="&lt;font&gt;DB&lt;/font&gt;" style="shape=cylinder3;whiteSpace=wrap;html=1;boundedLbl=1;backgroundOutline=1;size=11;fontFamily=Zen Kaku Gothic New;fontSource=https%3A%2F%2Ffonts.googleapis.com%2Fcss%3Ffamily%3DZen%2BKaku%2BGothic%2BNew;fontSize=20;dashed=1;" parent="1" vertex="1">
          <mxGeometry x="590" y="240" width="60" height="80" as="geometry" />
        </mxCell>
        <mxCell id="-Pul16ckeKqLMgaGqeRH-20" value="" style="rounded=1;whiteSpace=wrap;html=1;arcSize=6;fillColor=none;fontColor=#333333;strokeColor=#000000;dashed=1;strokeWidth=2;fontFamily=Zen Kaku Gothic New;fontSource=https%3A%2F%2Ffonts.googleapis.com%2Fcss%3Ffamily%3DZen%2BKaku%2BGothic%2BNew;" parent="1" vertex="1">
          <mxGeometry x="880" y="480" width="480" height="280" as="geometry" />
        </mxCell>
        <mxCell id="-Pul16ckeKqLMgaGqeRH-21" value="" style="edgeStyle=orthogonalEdgeStyle;rounded=0;orthogonalLoop=1;jettySize=auto;html=1;startArrow=classic;startFill=1;fontFamily=Zen Kaku Gothic New;fontSource=https%3A%2F%2Ffonts.googleapis.com%2Fcss%3Ffamily%3DZen%2BKaku%2BGothic%2BNew;" parent="1" source="-Pul16ckeKqLMgaGqeRH-22" target="-Pul16ckeKqLMgaGqeRH-23" edge="1">
          <mxGeometry relative="1" as="geometry" />
        </mxCell>
        <mxCell id="-Pul16ckeKqLMgaGqeRH-22" value="Service A" style="rounded=1;whiteSpace=wrap;html=1;fontFamily=Zen Kaku Gothic New;fontSource=https%3A%2F%2Ffonts.googleapis.com%2Fcss%3Ffamily%3DZen%2BKaku%2BGothic%2BNew;fontSize=20;" parent="1" vertex="1">
          <mxGeometry x="930" y="530" width="180" height="60" as="geometry" />
        </mxCell>
        <mxCell id="-Pul16ckeKqLMgaGqeRH-23" value="Service B" style="rounded=1;whiteSpace=wrap;html=1;fontFamily=Zen Kaku Gothic New;fontSource=https%3A%2F%2Ffonts.googleapis.com%2Fcss%3Ffamily%3DZen%2BKaku%2BGothic%2BNew;fontSize=20;" parent="1" vertex="1">
          <mxGeometry x="930" y="650" width="180" height="60" as="geometry" />
        </mxCell>
        <mxCell id="-Pul16ckeKqLMgaGqeRH-24" style="edgeStyle=orthogonalEdgeStyle;rounded=0;orthogonalLoop=1;jettySize=auto;html=1;entryX=1;entryY=0.5;entryDx=0;entryDy=0;startArrow=classic;startFill=1;jumpStyle=none;curved=1;fontFamily=Zen Kaku Gothic New;fontSource=https%3A%2F%2Ffonts.googleapis.com%2Fcss%3Ffamily%3DZen%2BKaku%2BGothic%2BNew;" parent="1" source="-Pul16ckeKqLMgaGqeRH-25" target="-Pul16ckeKqLMgaGqeRH-22" edge="1">
          <mxGeometry relative="1" as="geometry">
            <Array as="points">
              <mxPoint x="1220" y="560" />
            </Array>
          </mxGeometry>
        </mxCell>
        <mxCell id="-Pul16ckeKqLMgaGqeRH-25" value="Service C" style="rounded=1;whiteSpace=wrap;html=1;fontFamily=Zen Kaku Gothic New;fontSource=https%3A%2F%2Ffonts.googleapis.com%2Fcss%3Ffamily%3DZen%2BKaku%2BGothic%2BNew;fontSize=20;" parent="1" vertex="1">
          <mxGeometry x="1130" y="650" width="180" height="60" as="geometry" />
        </mxCell>
        <mxCell id="-Pul16ckeKqLMgaGqeRH-26" value="&lt;font style=&quot;font-size: 18px;&quot;&gt;API&lt;/font&gt;" style="text;html=1;align=center;verticalAlign=middle;resizable=0;points=[];autosize=1;strokeColor=none;fillColor=none;fontFamily=Zen Kaku Gothic New;fontSource=https%3A%2F%2Ffonts.googleapis.com%2Fcss%3Ffamily%3DZen%2BKaku%2BGothic%2BNew;fontStyle=1" parent="1" vertex="1">
          <mxGeometry x="1200" y="560" width="50" height="40" as="geometry" />
        </mxCell>
        <mxCell id="-Pul16ckeKqLMgaGqeRH-27" value="&lt;font style=&quot;font-size: 18px;&quot;&gt;API&lt;/font&gt;" style="text;html=1;align=center;verticalAlign=middle;resizable=0;points=[];autosize=1;strokeColor=none;fillColor=none;fontFamily=Zen Kaku Gothic New;fontSource=https%3A%2F%2Ffonts.googleapis.com%2Fcss%3Ffamily%3DZen%2BKaku%2BGothic%2BNew;fontStyle=1" parent="1" vertex="1">
          <mxGeometry x="1020" y="600" width="50" height="40" as="geometry" />
        </mxCell>
        <mxCell id="-Pul16ckeKqLMgaGqeRH-28" value="" style="rounded=1;whiteSpace=wrap;html=1;arcSize=6;strokeWidth=2;fontFamily=Zen Kaku Gothic New;fontSource=https%3A%2F%2Ffonts.googleapis.com%2Fcss%3Ffamily%3DZen%2BKaku%2BGothic%2BNew;" parent="1" vertex="1">
          <mxGeometry x="240" y="480" width="480" height="280" as="geometry" />
        </mxCell>
        <mxCell id="-Pul16ckeKqLMgaGqeRH-29" value="&lt;font data-font-src=&quot;https://fonts.googleapis.com/css?family=Zen+Kaku+Gothic+New&quot;&gt;Application ≒ Services&lt;/font&gt;" style="text;html=1;align=center;verticalAlign=middle;resizable=0;points=[];autosize=1;strokeColor=none;fillColor=none;fontSize=24;fontFamily=Zen Kaku Gothic New;fontSource=https%3A%2F%2Ffonts.googleapis.com%2Fcss%3Ffamily%3DZen%2BKaku%2BGothic%2BNew;" parent="1" vertex="1">
          <mxGeometry x="990" y="760" width="260" height="40" as="geometry" />
        </mxCell>
        <mxCell id="-Pul16ckeKqLMgaGqeRH-30" value="&lt;font data-font-src=&quot;https://fonts.googleapis.com/css?family=Zen+Kaku+Gothic+New&quot;&gt;Application = Service&lt;/font&gt;" style="text;html=1;align=center;verticalAlign=middle;resizable=0;points=[];autosize=1;strokeColor=none;fillColor=none;fontSize=24;fontFamily=Zen Kaku Gothic New;fontSource=https%3A%2F%2Ffonts.googleapis.com%2Fcss%3Ffamily%3DZen%2BKaku%2BGothic%2BNew;" parent="1" vertex="1">
          <mxGeometry x="355" y="760" width="250" height="40" as="geometry" />
        </mxCell>
        <mxCell id="-Pul16ckeKqLMgaGqeRH-31" value="Front end" style="rounded=1;whiteSpace=wrap;html=1;fontFamily=Zen Kaku Gothic New;fontSource=https%3A%2F%2Ffonts.googleapis.com%2Fcss%3Ffamily%3DZen%2BKaku%2BGothic%2BNew;fontSize=20;dashed=1;" parent="1" vertex="1">
          <mxGeometry x="400" y="520" width="180" height="60" as="geometry" />
        </mxCell>
        <mxCell id="-Pul16ckeKqLMgaGqeRH-32" value="Back end" style="rounded=1;whiteSpace=wrap;html=1;fontFamily=Zen Kaku Gothic New;fontSource=https%3A%2F%2Ffonts.googleapis.com%2Fcss%3Ffamily%3DZen%2BKaku%2BGothic%2BNew;fontSize=20;dashed=1;" parent="1" vertex="1">
          <mxGeometry x="290" y="630" width="180" height="60" as="geometry" />
        </mxCell>
        <mxCell id="-Pul16ckeKqLMgaGqeRH-33" value="&lt;font&gt;DB&lt;/font&gt;" style="shape=cylinder3;whiteSpace=wrap;html=1;boundedLbl=1;backgroundOutline=1;size=11;fontFamily=Zen Kaku Gothic New;fontSource=https%3A%2F%2Ffonts.googleapis.com%2Fcss%3Ffamily%3DZen%2BKaku%2BGothic%2BNew;fontSize=20;dashed=1;" parent="1" vertex="1">
          <mxGeometry x="590" y="640" width="60" height="80" as="geometry" />
        </mxCell>
        <mxCell id="11" value="" style="rounded=1;whiteSpace=wrap;html=1;arcSize=6;strokeWidth=2;fontFamily=Zen Kaku Gothic New;fontSource=https%3A%2F%2Ffonts.googleapis.com%2Fcss%3Ffamily%3DZen%2BKaku%2BGothic%2BNew;strokeColor=none;opacity=40;fillColor=light-dark(#545454, #ededed);" parent="1" vertex="1">
          <mxGeometry x="240" y="480" width="480" height="280" as="geometry" />
        </mxCell>
        <mxCell id="12" value="&lt;font style=&quot;font-size: 64px;&quot;&gt;🛠️&lt;/font&gt;" style="text;html=1;align=center;verticalAlign=middle;resizable=0;points=[];autosize=1;strokeColor=none;fillColor=none;" parent="1" vertex="1">
          <mxGeometry x="890" y="490" width="90" height="90" as="geometry" />
        </mxCell>
        <mxCell id="13" value="&lt;font&gt;✅&lt;/font&gt;" style="text;html=1;align=center;verticalAlign=middle;resizable=0;points=[];autosize=1;strokeColor=none;fillColor=none;fontSize=48;" parent="1" vertex="1">
          <mxGeometry x="910" y="620" width="70" height="70" as="geometry" />
        </mxCell>
        <mxCell id="14" value="&lt;font&gt;✅&lt;/font&gt;" style="text;html=1;align=center;verticalAlign=middle;resizable=0;points=[];autosize=1;strokeColor=none;fillColor=none;fontSize=48;" parent="1" vertex="1">
          <mxGeometry x="1110" y="620" width="70" height="70" as="geometry" />
        </mxCell>
        <mxCell id="17" value="&lt;font&gt;😇&lt;/font&gt;" style="text;html=1;align=center;verticalAlign=middle;resizable=0;points=[];autosize=1;strokeColor=none;fillColor=none;fontSize=48;" parent="1" vertex="1">
          <mxGeometry x="270" y="610" width="70" height="70" as="geometry" />
        </mxCell>
        <mxCell id="2" value="&lt;font style=&quot;font-size: 64px;&quot;&gt;🛠️&lt;/font&gt;" style="text;html=1;align=center;verticalAlign=middle;resizable=0;points=[];autosize=1;strokeColor=none;fillColor=none;" parent="1" vertex="1">
          <mxGeometry x="370" y="480" width="90" height="90" as="geometry" />
        </mxCell>
        <mxCell id="3" value="&lt;font style=&quot;font-size: 64px;&quot;&gt;💥&lt;/font&gt;" style="text;html=1;align=center;verticalAlign=middle;resizable=0;points=[];autosize=1;strokeColor=none;fillColor=none;" parent="1" vertex="1">
          <mxGeometry x="550" y="600" width="90" height="90" as="geometry" />
        </mxCell>
        <mxCell id="gXLJcbF1pX1hz0Xauo3N-18" value="" style="edgeStyle=orthogonalEdgeStyle;rounded=0;orthogonalLoop=1;jettySize=auto;html=1;startArrow=classic;startFill=1;fontFamily=Zen Kaku Gothic New;fontSource=https%3A%2F%2Ffonts.googleapis.com%2Fcss%3Ffamily%3DZen%2BKaku%2BGothic%2BNew;" edge="1" parent="1" source="gXLJcbF1pX1hz0Xauo3N-19" target="gXLJcbF1pX1hz0Xauo3N-20">
          <mxGeometry relative="1" as="geometry" />
        </mxCell>
        <mxCell id="gXLJcbF1pX1hz0Xauo3N-19" value="Service A" style="rounded=1;whiteSpace=wrap;html=1;fontFamily=Zen Kaku Gothic New;fontSource=https%3A%2F%2Ffonts.googleapis.com%2Fcss%3Ffamily%3DZen%2BKaku%2BGothic%2BNew;fontSize=20;" vertex="1" parent="1">
          <mxGeometry x="1410" y="130" width="180" height="60" as="geometry" />
        </mxCell>
        <mxCell id="gXLJcbF1pX1hz0Xauo3N-20" value="Service B" style="rounded=1;whiteSpace=wrap;html=1;fontFamily=Zen Kaku Gothic New;fontSource=https%3A%2F%2Ffonts.googleapis.com%2Fcss%3Ffamily%3DZen%2BKaku%2BGothic%2BNew;fontSize=20;" vertex="1" parent="1">
          <mxGeometry x="1410" y="290" width="180" height="60" as="geometry" />
        </mxCell>
        <mxCell id="gXLJcbF1pX1hz0Xauo3N-21" value="&lt;font style=&quot;font-size: 18px;&quot;&gt;API&lt;/font&gt;" style="text;html=1;align=center;verticalAlign=middle;resizable=0;points=[];autosize=1;strokeColor=none;fillColor=none;fontFamily=Zen Kaku Gothic New;fontSource=https%3A%2F%2Ffonts.googleapis.com%2Fcss%3Ffamily%3DZen%2BKaku%2BGothic%2BNew;fontStyle=1" vertex="1" parent="1">
          <mxGeometry x="1450" y="220" width="50" height="40" as="geometry" />
        </mxCell>
      </root>
    </mxGraphModel>
  </diagram>
</mxfile>
